# Tiled2Unity generated file. Do not modify by hand.
# Wavefront file for 'Formigueiro_mesh_0010.obj'

# Vertices (Count = 560)
v 0 -7 0
v -1 -7 0
v -1 -6 0
v 0 -6 0
v -1 -7 0
v -2 -7 0
v -2 -6 0
v -1 -6 0
v -2 -7 0
v -3 -7 0
v -3 -6 0
v -2 -6 0
v -3 -7 0
v -4 -7 0
v -4 -6 0
v -3 -6 0
v -4 -7 0
v -5 -7 0
v -5 -6 0
v -4 -6 0
v -5 -7 0
v -6 -7 0
v -6 -6 0
v -5 -6 0
v -6 -7 0
v -7 -7 0
v -7 -6 0
v -6 -6 0
v -7 -7 0
v -8 -7 0
v -8 -6 0
v -7 -6 0
v -8 -7 0
v -9 -7 0
v -9 -6 0
v -8 -6 0
v -9 -7 0
v -10 -7 0
v -10 -6 0
v -9 -6 0
v -10 -7 0
v -11 -7 0
v -11 -6 0
v -10 -6 0
v -11 -7 0
v -12 -7 0
v -12 -6 0
v -11 -6 0
v -12 -7 0
v -13 -7 0
v -13 -6 0
v -12 -6 0
v -13 -7 0
v -14 -7 0
v -14 -6 0
v -13 -6 0
v -14 -7 0
v -15 -7 0
v -15 -6 0
v -14 -6 0
v -15 -7 0
v -16 -7 0
v -16 -6 0
v -15 -6 0
v 0 -8 0
v -1 -8 0
v -1 -7 0
v 0 -7 0
v -1 -8 0
v -2 -8 0
v -2 -7 0
v -1 -7 0
v -2 -8 0
v -3 -8 0
v -3 -7 0
v -2 -7 0
v -3 -8 0
v -4 -8 0
v -4 -7 0
v -3 -7 0
v -4 -8 0
v -5 -8 0
v -5 -7 0
v -4 -7 0
v -5 -8 0
v -6 -8 0
v -6 -7 0
v -5 -7 0
v -6 -8 0
v -7 -8 0
v -7 -7 0
v -6 -7 0
v -7 -8 0
v -8 -8 0
v -8 -7 0
v -7 -7 0
v -8 -8 0
v -9 -8 0
v -9 -7 0
v -8 -7 0
v -9 -8 0
v -10 -8 0
v -10 -7 0
v -9 -7 0
v -10 -8 0
v -11 -8 0
v -11 -7 0
v -10 -7 0
v -11 -8 0
v -12 -8 0
v -12 -7 0
v -11 -7 0
v -12 -8 0
v -13 -8 0
v -13 -7 0
v -12 -7 0
v -13 -8 0
v -14 -8 0
v -14 -7 0
v -13 -7 0
v -14 -8 0
v -15 -8 0
v -15 -7 0
v -14 -7 0
v -15 -8 0
v -16 -8 0
v -16 -7 0
v -15 -7 0
v 0 -9 0
v -1 -9 0
v -1 -8 0
v 0 -8 0
v -1 -9 0
v -2 -9 0
v -2 -8 0
v -1 -8 0
v -2 -9 0
v -3 -9 0
v -3 -8 0
v -2 -8 0
v -3 -9 0
v -4 -9 0
v -4 -8 0
v -3 -8 0
v -4 -9 0
v -5 -9 0
v -5 -8 0
v -4 -8 0
v -5 -9 0
v -6 -9 0
v -6 -8 0
v -5 -8 0
v -6 -9 0
v -7 -9 0
v -7 -8 0
v -6 -8 0
v -7 -9 0
v -8 -9 0
v -8 -8 0
v -7 -8 0
v -8 -9 0
v -9 -9 0
v -9 -8 0
v -8 -8 0
v -9 -9 0
v -10 -9 0
v -10 -8 0
v -9 -8 0
v -10 -9 0
v -11 -9 0
v -11 -8 0
v -10 -8 0
v -11 -9 0
v -12 -9 0
v -12 -8 0
v -11 -8 0
v -12 -9 0
v -13 -9 0
v -13 -8 0
v -12 -8 0
v -13 -9 0
v -14 -9 0
v -14 -8 0
v -13 -8 0
v -14 -9 0
v -15 -9 0
v -15 -8 0
v -14 -8 0
v -15 -9 0
v -16 -9 0
v -16 -8 0
v -15 -8 0
v -9 -10 0
v -10 -10 0
v -10 -9 0
v -9 -9 0
v -10 -10 0
v -11 -10 0
v -11 -9 0
v -10 -9 0
v -11 -10 0
v -12 -10 0
v -12 -9 0
v -11 -9 0
v -12 -10 0
v -13 -10 0
v -13 -9 0
v -12 -9 0
v -13 -10 0
v -14 -10 0
v -14 -9 0
v -13 -9 0
v -14 -10 0
v -15 -10 0
v -15 -9 0
v -14 -9 0
v -15 -10 0
v -16 -10 0
v -16 -9 0
v -15 -9 0
v 0 -11 0
v -1 -11 0
v -1 -10 0
v 0 -10 0
v -1 -11 0
v -2 -11 0
v -2 -10 0
v -1 -10 0
v -2 -11 0
v -3 -11 0
v -3 -10 0
v -2 -10 0
v -3 -11 0
v -4 -11 0
v -4 -10 0
v -3 -10 0
v -4 -11 0
v -5 -11 0
v -5 -10 0
v -4 -10 0
v -5 -11 0
v -6 -11 0
v -6 -10 0
v -5 -10 0
v -6 -11 0
v -7 -11 0
v -7 -10 0
v -6 -10 0
v -9 -11 0
v -10 -11 0
v -10 -10 0
v -9 -10 0
v -10 -11 0
v -11 -11 0
v -11 -10 0
v -10 -10 0
v -11 -11 0
v -12 -11 0
v -12 -10 0
v -11 -10 0
v -12 -11 0
v -13 -11 0
v -13 -10 0
v -12 -10 0
v -13 -11 0
v -14 -11 0
v -14 -10 0
v -13 -10 0
v -14 -11 0
v -15 -11 0
v -15 -10 0
v -14 -10 0
v -15 -11 0
v -16 -11 0
v -16 -10 0
v -15 -10 0
v 0 -12 0
v -1 -12 0
v -1 -11 0
v 0 -11 0
v -1 -12 0
v -2 -12 0
v -2 -11 0
v -1 -11 0
v -2 -12 0
v -3 -12 0
v -3 -11 0
v -2 -11 0
v -3 -12 0
v -4 -12 0
v -4 -11 0
v -3 -11 0
v -4 -12 0
v -5 -12 0
v -5 -11 0
v -4 -11 0
v -5 -12 0
v -6 -12 0
v -6 -11 0
v -5 -11 0
v -6 -12 0
v -7 -12 0
v -7 -11 0
v -6 -11 0
v -7 -12 0
v -8 -12 0
v -8 -11 0
v -7 -11 0
v -9 -12 0
v -10 -12 0
v -10 -11 0
v -9 -11 0
v -10 -12 0
v -11 -12 0
v -11 -11 0
v -10 -11 0
v -11 -12 0
v -12 -12 0
v -12 -11 0
v -11 -11 0
v -12 -12 0
v -13 -12 0
v -13 -11 0
v -12 -11 0
v -13 -12 0
v -14 -12 0
v -14 -11 0
v -13 -11 0
v -14 -12 0
v -15 -12 0
v -15 -11 0
v -14 -11 0
v -15 -12 0
v -16 -12 0
v -16 -11 0
v -15 -11 0
v 0 -13 0
v -1 -13 0
v -1 -12 0
v 0 -12 0
v -1 -13 0
v -2 -13 0
v -2 -12 0
v -1 -12 0
v -2 -13 0
v -3 -13 0
v -3 -12 0
v -2 -12 0
v -3 -13 0
v -4 -13 0
v -4 -12 0
v -3 -12 0
v -4 -13 0
v -5 -13 0
v -5 -12 0
v -4 -12 0
v -5 -13 0
v -6 -13 0
v -6 -12 0
v -5 -12 0
v -6 -13 0
v -7 -13 0
v -7 -12 0
v -6 -12 0
v -7 -13 0
v -8 -13 0
v -8 -12 0
v -7 -12 0
v -9 -13 0
v -10 -13 0
v -10 -12 0
v -9 -12 0
v -10 -13 0
v -11 -13 0
v -11 -12 0
v -10 -12 0
v -11 -13 0
v -12 -13 0
v -12 -12 0
v -11 -12 0
v -12 -13 0
v -13 -13 0
v -13 -12 0
v -12 -12 0
v -13 -13 0
v -14 -13 0
v -14 -12 0
v -13 -12 0
v -14 -13 0
v -15 -13 0
v -15 -12 0
v -14 -12 0
v -15 -13 0
v -16 -13 0
v -16 -12 0
v -15 -12 0
v 0 -14 0
v -1 -14 0
v -1 -13 0
v 0 -13 0
v -1 -14 0
v -2 -14 0
v -2 -13 0
v -1 -13 0
v -2 -14 0
v -3 -14 0
v -3 -13 0
v -2 -13 0
v -3 -14 0
v -4 -14 0
v -4 -13 0
v -3 -13 0
v -4 -14 0
v -5 -14 0
v -5 -13 0
v -4 -13 0
v -5 -14 0
v -6 -14 0
v -6 -13 0
v -5 -13 0
v -6 -14 0
v -7 -14 0
v -7 -13 0
v -6 -13 0
v -7 -14 0
v -8 -14 0
v -8 -13 0
v -7 -13 0
v -9 -14 0
v -10 -14 0
v -10 -13 0
v -9 -13 0
v -10 -14 0
v -11 -14 0
v -11 -13 0
v -10 -13 0
v -11 -14 0
v -12 -14 0
v -12 -13 0
v -11 -13 0
v -12 -14 0
v -13 -14 0
v -13 -13 0
v -12 -13 0
v -13 -14 0
v -14 -14 0
v -14 -13 0
v -13 -13 0
v -14 -14 0
v -15 -14 0
v -15 -13 0
v -14 -13 0
v -15 -14 0
v -16 -14 0
v -16 -13 0
v -15 -13 0
v -4 -15 0
v -5 -15 0
v -5 -14 0
v -4 -14 0
v -5 -15 0
v -6 -15 0
v -6 -14 0
v -5 -14 0
v -6 -15 0
v -7 -15 0
v -7 -14 0
v -6 -14 0
v -7 -15 0
v -8 -15 0
v -8 -14 0
v -7 -14 0
v -9 -15 0
v -10 -15 0
v -10 -14 0
v -9 -14 0
v -10 -15 0
v -11 -15 0
v -11 -14 0
v -10 -14 0
v -11 -15 0
v -12 -15 0
v -12 -14 0
v -11 -14 0
v -12 -15 0
v -13 -15 0
v -13 -14 0
v -12 -14 0
v -13 -15 0
v -14 -15 0
v -14 -14 0
v -13 -14 0
v -14 -15 0
v -15 -15 0
v -15 -14 0
v -14 -14 0
v -15 -15 0
v -16 -15 0
v -16 -14 0
v -15 -14 0
v 0 -16 0
v -1 -16 0
v -1 -15 0
v 0 -15 0
v -1 -16 0
v -2 -16 0
v -2 -15 0
v -1 -15 0
v -2 -16 0
v -3 -16 0
v -3 -15 0
v -2 -15 0
v -3 -16 0
v -4 -16 0
v -4 -15 0
v -3 -15 0
v -4 -16 0
v -5 -16 0
v -5 -15 0
v -4 -15 0
v -5 -16 0
v -6 -16 0
v -6 -15 0
v -5 -15 0
v -6 -16 0
v -7 -16 0
v -7 -15 0
v -6 -15 0
v -7 -16 0
v -8 -16 0
v -8 -15 0
v -7 -15 0
v -9 -16 0
v -10 -16 0
v -10 -15 0
v -9 -15 0
v -10 -16 0
v -11 -16 0
v -11 -15 0
v -10 -15 0
v -11 -16 0
v -12 -16 0
v -12 -15 0
v -11 -15 0
v -12 -16 0
v -13 -16 0
v -13 -15 0
v -12 -15 0
v -13 -16 0
v -14 -16 0
v -14 -15 0
v -13 -15 0
v -14 -16 0
v -15 -16 0
v -15 -15 0
v -14 -15 0
v -15 -16 0
v -16 -16 0
v -16 -15 0
v -15 -15 0

# Texture cooridinates (Count = 14)
vt 0.07692308 0
vt 0.1538462 0
vt 0.1538462 1
vt 0.07692308 1
vt 0 0
vt 0 1
vt 0.4615385 1
vt 0.5384616 1
vt 0.5384616 0
vt 0.4615385 0
vt 0.3846154 0
vt 0.3846154 1
vt 0.6153846 1
vt 0.6153846 0

# Normal
vn 0 0 -1

# Mesh description
g Formigueiro_mesh_0010

# Faces
f 1/1/1 2/2/1 3/3/1 4/4/1
f 5/1/1 6/2/1 7/3/1 8/4/1
f 9/1/1 10/2/1 11/3/1 12/4/1
f 13/1/1 14/2/1 15/3/1 16/4/1
f 17/1/1 18/2/1 19/3/1 20/4/1
f 21/1/1 22/2/1 23/3/1 24/4/1
f 25/1/1 26/2/1 27/3/1 28/4/1
f 29/1/1 30/2/1 31/3/1 32/4/1
f 33/1/1 34/2/1 35/3/1 36/4/1
f 37/1/1 38/2/1 39/3/1 40/4/1
f 41/1/1 42/2/1 43/3/1 44/4/1
f 45/1/1 46/2/1 47/3/1 48/4/1
f 49/1/1 50/2/1 51/3/1 52/4/1
f 53/1/1 54/2/1 55/3/1 56/4/1
f 57/1/1 58/2/1 59/3/1 60/4/1
f 61/1/1 62/2/1 63/3/1 64/4/1
f 65/5/1 66/1/1 67/4/1 68/6/1
f 69/5/1 70/1/1 71/4/1 72/6/1
f 73/5/1 74/1/1 75/4/1 76/6/1
f 77/5/1 78/1/1 79/4/1 80/6/1
f 81/5/1 82/1/1 83/4/1 84/6/1
f 85/5/1 86/1/1 87/4/1 88/6/1
f 89/5/1 90/1/1 91/4/1 92/6/1
f 93/5/1 94/1/1 95/4/1 96/6/1
f 97/5/1 98/1/1 99/4/1 100/6/1
f 101/5/1 102/1/1 103/4/1 104/6/1
f 105/5/1 106/1/1 107/4/1 108/6/1
f 109/5/1 110/1/1 111/4/1 112/6/1
f 113/5/1 114/1/1 115/4/1 116/6/1
f 117/5/1 118/1/1 119/4/1 120/6/1
f 121/5/1 122/1/1 123/4/1 124/6/1
f 125/5/1 126/1/1 127/4/1 128/6/1
f 129/3/1 130/4/1 131/1/1 132/2/1
f 133/3/1 134/4/1 135/1/1 136/2/1
f 137/3/1 138/4/1 139/1/1 140/2/1
f 141/3/1 142/4/1 143/1/1 144/2/1
f 145/3/1 146/4/1 147/1/1 148/2/1
f 149/3/1 150/4/1 151/1/1 152/2/1
f 153/3/1 154/4/1 155/1/1 156/2/1
f 157/3/1 158/4/1 159/1/1 160/2/1
f 161/7/1 162/8/1 163/9/1 164/10/1
f 165/5/1 166/1/1 167/4/1 168/6/1
f 169/5/1 170/1/1 171/4/1 172/6/1
f 173/5/1 174/1/1 175/4/1 176/6/1
f 177/5/1 178/1/1 179/4/1 180/6/1
f 181/5/1 182/1/1 183/4/1 184/6/1
f 185/5/1 186/1/1 187/4/1 188/6/1
f 189/5/1 190/1/1 191/4/1 192/6/1
f 193/7/1 194/10/1 195/9/1 196/8/1
f 197/5/1 198/1/1 199/4/1 200/6/1
f 201/5/1 202/1/1 203/4/1 204/6/1
f 205/5/1 206/1/1 207/4/1 208/6/1
f 209/5/1 210/1/1 211/4/1 212/6/1
f 213/5/1 214/1/1 215/4/1 216/6/1
f 217/5/1 218/1/1 219/4/1 220/6/1
f 221/1/1 222/2/1 223/3/1 224/4/1
f 225/1/1 226/2/1 227/3/1 228/4/1
f 229/1/1 230/2/1 231/3/1 232/4/1
f 233/1/1 234/2/1 235/3/1 236/4/1
f 237/1/1 238/2/1 239/3/1 240/4/1
f 241/1/1 242/2/1 243/3/1 244/4/1
f 245/10/1 246/11/1 247/12/1 248/7/1
f 249/4/1 250/1/1 251/2/1 252/3/1
f 253/5/1 254/1/1 255/4/1 256/6/1
f 257/5/1 258/1/1 259/4/1 260/6/1
f 261/5/1 262/1/1 263/4/1 264/6/1
f 265/5/1 266/1/1 267/4/1 268/6/1
f 269/5/1 270/1/1 271/4/1 272/6/1
f 273/5/1 274/1/1 275/4/1 276/6/1
f 277/5/1 278/1/1 279/4/1 280/6/1
f 281/5/1 282/1/1 283/4/1 284/6/1
f 285/5/1 286/1/1 287/4/1 288/6/1
f 289/5/1 290/1/1 291/4/1 292/6/1
f 293/5/1 294/1/1 295/4/1 296/6/1
f 297/5/1 298/1/1 299/4/1 300/6/1
f 301/5/1 302/1/1 303/4/1 304/6/1
f 305/10/1 306/7/1 307/12/1 308/11/1
f 309/4/1 310/1/1 311/2/1 312/3/1
f 313/5/1 314/1/1 315/4/1 316/6/1
f 317/5/1 318/1/1 319/4/1 320/6/1
f 321/5/1 322/1/1 323/4/1 324/6/1
f 325/5/1 326/1/1 327/4/1 328/6/1
f 329/5/1 330/1/1 331/4/1 332/6/1
f 333/5/1 334/1/1 335/4/1 336/6/1
f 337/5/1 338/1/1 339/4/1 340/6/1
f 341/5/1 342/1/1 343/4/1 344/6/1
f 345/5/1 346/1/1 347/4/1 348/6/1
f 349/5/1 350/1/1 351/4/1 352/6/1
f 353/5/1 354/1/1 355/4/1 356/6/1
f 357/5/1 358/1/1 359/4/1 360/6/1
f 361/5/1 362/1/1 363/4/1 364/6/1
f 365/2/1 366/3/1 367/4/1 368/1/1
f 369/4/1 370/1/1 371/2/1 372/3/1
f 373/5/1 374/1/1 375/4/1 376/6/1
f 377/5/1 378/1/1 379/4/1 380/6/1
f 381/5/1 382/1/1 383/4/1 384/6/1
f 385/5/1 386/1/1 387/4/1 388/6/1
f 389/5/1 390/1/1 391/4/1 392/6/1
f 393/5/1 394/1/1 395/4/1 396/6/1
f 397/3/1 398/4/1 399/1/1 400/2/1
f 401/3/1 402/4/1 403/1/1 404/2/1
f 405/3/1 406/4/1 407/1/1 408/2/1
f 409/13/1 410/8/1 411/9/1 412/14/1
f 413/5/1 414/1/1 415/4/1 416/6/1
f 417/5/1 418/1/1 419/4/1 420/6/1
f 421/5/1 422/1/1 423/4/1 424/6/1
f 425/2/1 426/3/1 427/4/1 428/1/1
f 429/4/1 430/1/1 431/2/1 432/3/1
f 433/5/1 434/1/1 435/4/1 436/6/1
f 437/5/1 438/1/1 439/4/1 440/6/1
f 441/5/1 442/1/1 443/4/1 444/6/1
f 445/5/1 446/1/1 447/4/1 448/6/1
f 449/5/1 450/1/1 451/4/1 452/6/1
f 453/5/1 454/1/1 455/4/1 456/6/1
f 457/5/1 458/1/1 459/4/1 460/6/1
f 461/5/1 462/1/1 463/4/1 464/6/1
f 465/5/1 466/1/1 467/4/1 468/6/1
f 469/2/1 470/3/1 471/4/1 472/1/1
f 473/4/1 474/1/1 475/2/1 476/3/1
f 477/5/1 478/1/1 479/4/1 480/6/1
f 481/5/1 482/1/1 483/4/1 484/6/1
f 485/5/1 486/1/1 487/4/1 488/6/1
f 489/5/1 490/1/1 491/4/1 492/6/1
f 493/5/1 494/1/1 495/4/1 496/6/1
f 497/5/1 498/1/1 499/4/1 500/6/1
f 501/1/1 502/2/1 503/3/1 504/4/1
f 505/1/1 506/2/1 507/3/1 508/4/1
f 509/1/1 510/2/1 511/3/1 512/4/1
f 513/10/1 514/9/1 515/8/1 516/7/1
f 517/5/1 518/1/1 519/4/1 520/6/1
f 521/5/1 522/1/1 523/4/1 524/6/1
f 525/5/1 526/1/1 527/4/1 528/6/1
f 529/9/1 530/8/1 531/7/1 532/10/1
f 533/8/1 534/9/1 535/14/1 536/13/1
f 537/5/1 538/1/1 539/4/1 540/6/1
f 541/5/1 542/1/1 543/4/1 544/6/1
f 545/5/1 546/1/1 547/4/1 548/6/1
f 549/5/1 550/1/1 551/4/1 552/6/1
f 553/5/1 554/1/1 555/4/1 556/6/1
f 557/5/1 558/1/1 559/4/1 560/6/1

