# Tiled2Unity generated file. Do not modify by hand.
# Wavefront file for 'Formigueiro_mesh_0005.obj'

# Vertices (Count = 472)
v 0 -7 0
v -1 -7 0
v -1 -6 0
v 0 -6 0
v -1 -7 0
v -2 -7 0
v -2 -6 0
v -1 -6 0
v -2 -7 0
v -3 -7 0
v -3 -6 0
v -2 -6 0
v -3 -7 0
v -4 -7 0
v -4 -6 0
v -3 -6 0
v -4 -7 0
v -5 -7 0
v -5 -6 0
v -4 -6 0
v -5 -7 0
v -6 -7 0
v -6 -6 0
v -5 -6 0
v -6 -7 0
v -7 -7 0
v -7 -6 0
v -6 -6 0
v -11 -7 0
v -12 -7 0
v -12 -6 0
v -11 -6 0
v -12 -7 0
v -13 -7 0
v -13 -6 0
v -12 -6 0
v -13 -7 0
v -14 -7 0
v -14 -6 0
v -13 -6 0
v -14 -7 0
v -15 -7 0
v -15 -6 0
v -14 -6 0
v -15 -7 0
v -16 -7 0
v -16 -6 0
v -15 -6 0
v 0 -8 0
v -1 -8 0
v -1 -7 0
v 0 -7 0
v -1 -8 0
v -2 -8 0
v -2 -7 0
v -1 -7 0
v -2 -8 0
v -3 -8 0
v -3 -7 0
v -2 -7 0
v -3 -8 0
v -4 -8 0
v -4 -7 0
v -3 -7 0
v -4 -8 0
v -5 -8 0
v -5 -7 0
v -4 -7 0
v -5 -8 0
v -6 -8 0
v -6 -7 0
v -5 -7 0
v -6 -8 0
v -7 -8 0
v -7 -7 0
v -6 -7 0
v -7 -8 0
v -8 -8 0
v -8 -7 0
v -7 -7 0
v -10 -8 0
v -11 -8 0
v -11 -7 0
v -10 -7 0
v -11 -8 0
v -12 -8 0
v -12 -7 0
v -11 -7 0
v -12 -8 0
v -13 -8 0
v -13 -7 0
v -12 -7 0
v -13 -8 0
v -14 -8 0
v -14 -7 0
v -13 -7 0
v -14 -8 0
v -15 -8 0
v -15 -7 0
v -14 -7 0
v -15 -8 0
v -16 -8 0
v -16 -7 0
v -15 -7 0
v 0 -9 0
v -1 -9 0
v -1 -8 0
v 0 -8 0
v -1 -9 0
v -2 -9 0
v -2 -8 0
v -1 -8 0
v -2 -9 0
v -3 -9 0
v -3 -8 0
v -2 -8 0
v -3 -9 0
v -4 -9 0
v -4 -8 0
v -3 -8 0
v -4 -9 0
v -5 -9 0
v -5 -8 0
v -4 -8 0
v -5 -9 0
v -6 -9 0
v -6 -8 0
v -5 -8 0
v -6 -9 0
v -7 -9 0
v -7 -8 0
v -6 -8 0
v -7 -9 0
v -8 -9 0
v -8 -8 0
v -7 -8 0
v -9 -9 0
v -10 -9 0
v -10 -8 0
v -9 -8 0
v -10 -9 0
v -11 -9 0
v -11 -8 0
v -10 -8 0
v -11 -9 0
v -12 -9 0
v -12 -8 0
v -11 -8 0
v -12 -9 0
v -13 -9 0
v -13 -8 0
v -12 -8 0
v -13 -9 0
v -14 -9 0
v -14 -8 0
v -13 -8 0
v -14 -9 0
v -15 -9 0
v -15 -8 0
v -14 -8 0
v -15 -9 0
v -16 -9 0
v -16 -8 0
v -15 -8 0
v 0 -10 0
v -1 -10 0
v -1 -9 0
v 0 -9 0
v -1 -10 0
v -2 -10 0
v -2 -9 0
v -1 -9 0
v -2 -10 0
v -3 -10 0
v -3 -9 0
v -2 -9 0
v -3 -10 0
v -4 -10 0
v -4 -9 0
v -3 -9 0
v -4 -10 0
v -5 -10 0
v -5 -9 0
v -4 -9 0
v -5 -10 0
v -6 -10 0
v -6 -9 0
v -5 -9 0
v -6 -10 0
v -7 -10 0
v -7 -9 0
v -6 -9 0
v -10 -10 0
v -11 -10 0
v -11 -9 0
v -10 -9 0
v -11 -10 0
v -12 -10 0
v -12 -9 0
v -11 -9 0
v -12 -10 0
v -13 -10 0
v -13 -9 0
v -12 -9 0
v -13 -10 0
v -14 -10 0
v -14 -9 0
v -13 -9 0
v -14 -10 0
v -15 -10 0
v -15 -9 0
v -14 -9 0
v -15 -10 0
v -16 -10 0
v -16 -9 0
v -15 -9 0
v 0 -11 0
v -1 -11 0
v -1 -10 0
v 0 -10 0
v -1 -11 0
v -2 -11 0
v -2 -10 0
v -1 -10 0
v -2 -11 0
v -3 -11 0
v -3 -10 0
v -2 -10 0
v -3 -11 0
v -4 -11 0
v -4 -10 0
v -3 -10 0
v -4 -11 0
v -5 -11 0
v -5 -10 0
v -4 -10 0
v -5 -11 0
v -6 -11 0
v -6 -10 0
v -5 -10 0
v -6 -11 0
v -7 -11 0
v -7 -10 0
v -6 -10 0
v -11 -11 0
v -12 -11 0
v -12 -10 0
v -11 -10 0
v -12 -11 0
v -13 -11 0
v -13 -10 0
v -12 -10 0
v -13 -11 0
v -14 -11 0
v -14 -10 0
v -13 -10 0
v -14 -11 0
v -15 -11 0
v -15 -10 0
v -14 -10 0
v -15 -11 0
v -16 -11 0
v -16 -10 0
v -15 -10 0
v 0 -12 0
v -1 -12 0
v -1 -11 0
v 0 -11 0
v -1 -12 0
v -2 -12 0
v -2 -11 0
v -1 -11 0
v -2 -12 0
v -3 -12 0
v -3 -11 0
v -2 -11 0
v -3 -12 0
v -4 -12 0
v -4 -11 0
v -3 -11 0
v -4 -12 0
v -5 -12 0
v -5 -11 0
v -4 -11 0
v -5 -12 0
v -6 -12 0
v -6 -11 0
v -5 -11 0
v -15 -12 0
v -16 -12 0
v -16 -11 0
v -15 -11 0
v 0 -13 0
v -1 -13 0
v -1 -12 0
v 0 -12 0
v -1 -13 0
v -2 -13 0
v -2 -12 0
v -1 -12 0
v -2 -13 0
v -3 -13 0
v -3 -12 0
v -2 -12 0
v -3 -13 0
v -4 -13 0
v -4 -12 0
v -3 -12 0
v -11 -13 0
v -12 -13 0
v -12 -12 0
v -11 -12 0
v -12 -13 0
v -13 -13 0
v -13 -12 0
v -12 -12 0
v -13 -13 0
v -14 -13 0
v -14 -12 0
v -13 -12 0
v -14 -13 0
v -15 -13 0
v -15 -12 0
v -14 -12 0
v -5 -14 0
v -6 -14 0
v -6 -13 0
v -5 -13 0
v -9 -14 0
v -10 -14 0
v -10 -13 0
v -9 -13 0
v -10 -14 0
v -11 -14 0
v -11 -13 0
v -10 -13 0
v -11 -14 0
v -12 -14 0
v -12 -13 0
v -11 -13 0
v -12 -14 0
v -13 -14 0
v -13 -13 0
v -12 -13 0
v -13 -14 0
v -14 -14 0
v -14 -13 0
v -13 -13 0
v -14 -14 0
v -15 -14 0
v -15 -13 0
v -14 -13 0
v -15 -14 0
v -16 -14 0
v -16 -13 0
v -15 -13 0
v -1 -15 0
v -2 -15 0
v -2 -14 0
v -1 -14 0
v -2 -15 0
v -3 -15 0
v -3 -14 0
v -2 -14 0
v -3 -15 0
v -4 -15 0
v -4 -14 0
v -3 -14 0
v -4 -15 0
v -5 -15 0
v -5 -14 0
v -4 -14 0
v -5 -15 0
v -6 -15 0
v -6 -14 0
v -5 -14 0
v -6 -15 0
v -7 -15 0
v -7 -14 0
v -6 -14 0
v -7 -15 0
v -8 -15 0
v -8 -14 0
v -7 -14 0
v -9 -15 0
v -10 -15 0
v -10 -14 0
v -9 -14 0
v -10 -15 0
v -11 -15 0
v -11 -14 0
v -10 -14 0
v -11 -15 0
v -12 -15 0
v -12 -14 0
v -11 -14 0
v -12 -15 0
v -13 -15 0
v -13 -14 0
v -12 -14 0
v -13 -15 0
v -14 -15 0
v -14 -14 0
v -13 -14 0
v -14 -15 0
v -15 -15 0
v -15 -14 0
v -14 -14 0
v -15 -15 0
v -16 -15 0
v -16 -14 0
v -15 -14 0
v 0 -16 0
v -1 -16 0
v -1 -15 0
v 0 -15 0
v -1 -16 0
v -2 -16 0
v -2 -15 0
v -1 -15 0
v -2 -16 0
v -3 -16 0
v -3 -15 0
v -2 -15 0
v -3 -16 0
v -4 -16 0
v -4 -15 0
v -3 -15 0
v -4 -16 0
v -5 -16 0
v -5 -15 0
v -4 -15 0
v -5 -16 0
v -6 -16 0
v -6 -15 0
v -5 -15 0
v -6 -16 0
v -7 -16 0
v -7 -15 0
v -6 -15 0
v -7 -16 0
v -8 -16 0
v -8 -15 0
v -7 -15 0
v -9 -16 0
v -10 -16 0
v -10 -15 0
v -9 -15 0
v -10 -16 0
v -11 -16 0
v -11 -15 0
v -10 -15 0
v -11 -16 0
v -12 -16 0
v -12 -15 0
v -11 -15 0
v -12 -16 0
v -13 -16 0
v -13 -15 0
v -12 -15 0
v -13 -16 0
v -14 -16 0
v -14 -15 0
v -13 -15 0
v -14 -16 0
v -15 -16 0
v -15 -15 0
v -14 -15 0
v -15 -16 0
v -16 -16 0
v -16 -15 0
v -15 -15 0

# Texture cooridinates (Count = 18)
vt 0.07692308 0
vt 0.1538462 0
vt 0.1538462 1
vt 0.07692308 1
vt 0.6153846 0
vt 0.6923077 0
vt 0.6923077 1
vt 0.6153846 1
vt 0 0
vt 0 1
vt 0.4615385 0
vt 0.4615385 1
vt 0.3846154 1
vt 0.3846154 0
vt 0.5384616 1
vt 0.5384616 0
vt 0.2307692 0
vt 0.2307692 1

# Normal
vn 0 0 -1

# Mesh description
g Formigueiro_mesh_0005

# Faces
f 1/1/1 2/2/1 3/3/1 4/4/1
f 5/1/1 6/2/1 7/3/1 8/4/1
f 9/1/1 10/2/1 11/3/1 12/4/1
f 13/1/1 14/2/1 15/3/1 16/4/1
f 17/1/1 18/2/1 19/3/1 20/4/1
f 21/1/1 22/2/1 23/3/1 24/4/1
f 25/5/1 26/6/1 27/7/1 28/8/1
f 29/1/1 30/2/1 31/3/1 32/4/1
f 33/1/1 34/2/1 35/3/1 36/4/1
f 37/1/1 38/2/1 39/3/1 40/4/1
f 41/1/1 42/2/1 43/3/1 44/4/1
f 45/1/1 46/2/1 47/3/1 48/4/1
f 49/9/1 50/1/1 51/4/1 52/10/1
f 53/9/1 54/1/1 55/4/1 56/10/1
f 57/9/1 58/1/1 59/4/1 60/10/1
f 61/9/1 62/1/1 63/4/1 64/10/1
f 65/9/1 66/1/1 67/4/1 68/10/1
f 69/9/1 70/1/1 71/4/1 72/10/1
f 73/9/1 74/1/1 75/4/1 76/10/1
f 77/11/1 78/12/1 79/13/1 80/14/1
f 81/15/1 82/16/1 83/5/1 84/8/1
f 85/9/1 86/1/1 87/4/1 88/10/1
f 89/9/1 90/1/1 91/4/1 92/10/1
f 93/9/1 94/1/1 95/4/1 96/10/1
f 97/9/1 98/1/1 99/4/1 100/10/1
f 101/9/1 102/1/1 103/4/1 104/10/1
f 105/9/1 106/1/1 107/4/1 108/10/1
f 109/9/1 110/1/1 111/4/1 112/10/1
f 113/9/1 114/1/1 115/4/1 116/10/1
f 117/9/1 118/1/1 119/4/1 120/10/1
f 121/9/1 122/1/1 123/4/1 124/10/1
f 125/9/1 126/1/1 127/4/1 128/10/1
f 129/9/1 130/1/1 131/4/1 132/10/1
f 133/6/1 134/7/1 135/8/1 136/5/1
f 137/8/1 138/5/1 139/6/1 140/7/1
f 141/9/1 142/1/1 143/4/1 144/10/1
f 145/9/1 146/1/1 147/4/1 148/10/1
f 149/9/1 150/1/1 151/4/1 152/10/1
f 153/9/1 154/1/1 155/4/1 156/10/1
f 157/9/1 158/1/1 159/4/1 160/10/1
f 161/9/1 162/1/1 163/4/1 164/10/1
f 165/9/1 166/1/1 167/4/1 168/10/1
f 169/9/1 170/1/1 171/4/1 172/10/1
f 173/9/1 174/1/1 175/4/1 176/10/1
f 177/9/1 178/1/1 179/4/1 180/10/1
f 181/9/1 182/1/1 183/4/1 184/10/1
f 185/9/1 186/1/1 187/4/1 188/10/1
f 189/5/1 190/8/1 191/15/1 192/16/1
f 193/8/1 194/15/1 195/16/1 196/5/1
f 197/9/1 198/1/1 199/4/1 200/10/1
f 201/9/1 202/1/1 203/4/1 204/10/1
f 205/9/1 206/1/1 207/4/1 208/10/1
f 209/9/1 210/1/1 211/4/1 212/10/1
f 213/9/1 214/1/1 215/4/1 216/10/1
f 217/9/1 218/1/1 219/4/1 220/10/1
f 221/9/1 222/1/1 223/4/1 224/10/1
f 225/9/1 226/1/1 227/4/1 228/10/1
f 229/9/1 230/1/1 231/4/1 232/10/1
f 233/9/1 234/1/1 235/4/1 236/10/1
f 237/9/1 238/1/1 239/4/1 240/10/1
f 241/6/1 242/7/1 243/8/1 244/5/1
f 245/7/1 246/8/1 247/5/1 248/6/1
f 249/2/1 250/17/1 251/18/1 252/3/1
f 253/2/1 254/17/1 255/18/1 256/3/1
f 257/8/1 258/15/1 259/16/1 260/5/1
f 261/9/1 262/1/1 263/4/1 264/10/1
f 265/9/1 266/1/1 267/4/1 268/10/1
f 269/9/1 270/1/1 271/4/1 272/10/1
f 273/9/1 274/1/1 275/4/1 276/10/1
f 277/9/1 278/1/1 279/4/1 280/10/1
f 281/15/1 282/12/1 283/11/1 284/16/1
f 285/12/1 286/13/1 287/14/1 288/11/1
f 289/7/1 290/8/1 291/5/1 292/6/1
f 293/3/1 294/4/1 295/1/1 296/2/1
f 297/3/1 298/4/1 299/1/1 300/2/1
f 301/3/1 302/4/1 303/1/1 304/2/1
f 305/12/1 306/13/1 307/14/1 308/11/1
f 309/1/1 310/2/1 311/3/1 312/4/1
f 313/1/1 314/2/1 315/3/1 316/4/1
f 317/1/1 318/2/1 319/3/1 320/4/1
f 321/5/1 322/6/1 323/7/1 324/8/1
f 325/14/1 326/11/1 327/12/1 328/13/1
f 329/4/1 330/1/1 331/2/1 332/3/1
f 333/9/1 334/1/1 335/4/1 336/10/1
f 337/9/1 338/1/1 339/4/1 340/10/1
f 341/9/1 342/1/1 343/4/1 344/10/1
f 345/9/1 346/1/1 347/4/1 348/10/1
f 349/9/1 350/1/1 351/4/1 352/10/1
f 353/16/1 354/5/1 355/8/1 356/15/1
f 357/14/1 358/11/1 359/12/1 360/13/1
f 361/1/1 362/2/1 363/3/1 364/4/1
f 365/1/1 366/2/1 367/3/1 368/4/1
f 369/11/1 370/16/1 371/15/1 372/12/1
f 373/9/1 374/1/1 375/4/1 376/10/1
f 377/9/1 378/1/1 379/4/1 380/10/1
f 381/2/1 382/3/1 383/4/1 384/1/1
f 385/4/1 386/1/1 387/2/1 388/3/1
f 389/9/1 390/1/1 391/4/1 392/10/1
f 393/9/1 394/1/1 395/4/1 396/10/1
f 397/9/1 398/1/1 399/4/1 400/10/1
f 401/9/1 402/1/1 403/4/1 404/10/1
f 405/9/1 406/1/1 407/4/1 408/10/1
f 409/9/1 410/1/1 411/4/1 412/10/1
f 413/11/1 414/16/1 415/15/1 416/12/1
f 417/9/1 418/1/1 419/4/1 420/10/1
f 421/9/1 422/1/1 423/4/1 424/10/1
f 425/9/1 426/1/1 427/4/1 428/10/1
f 429/9/1 430/1/1 431/4/1 432/10/1
f 433/9/1 434/1/1 435/4/1 436/10/1
f 437/9/1 438/1/1 439/4/1 440/10/1
f 441/2/1 442/3/1 443/4/1 444/1/1
f 445/4/1 446/1/1 447/2/1 448/3/1
f 449/9/1 450/1/1 451/4/1 452/10/1
f 453/9/1 454/1/1 455/4/1 456/10/1
f 457/9/1 458/1/1 459/4/1 460/10/1
f 461/9/1 462/1/1 463/4/1 464/10/1
f 465/9/1 466/1/1 467/4/1 468/10/1
f 469/9/1 470/1/1 471/4/1 472/10/1

