# Tiled2Unity generated file. Do not modify by hand.
# Wavefront file for 'Formigueiro_mesh_0001.obj'

# Vertices (Count = 40)
v -15 -7 0
v -16 -7 0
v -16 -6 0
v -15 -6 0
v -15 -8 0
v -16 -8 0
v -16 -7 0
v -15 -7 0
v -15 -9 0
v -16 -9 0
v -16 -8 0
v -15 -8 0
v -15 -10 0
v -16 -10 0
v -16 -9 0
v -15 -9 0
v -15 -11 0
v -16 -11 0
v -16 -10 0
v -15 -10 0
v -15 -12 0
v -16 -12 0
v -16 -11 0
v -15 -11 0
v -15 -13 0
v -16 -13 0
v -16 -12 0
v -15 -12 0
v -15 -14 0
v -16 -14 0
v -16 -13 0
v -15 -13 0
v -15 -15 0
v -16 -15 0
v -16 -14 0
v -15 -14 0
v -15 -16 0
v -16 -16 0
v -16 -15 0
v -15 -15 0

# Texture cooridinates (Count = 6)
vt 0.07692308 0
vt 0.1538462 0
vt 0.1538462 1
vt 0.07692308 1
vt 0 0
vt 0 1

# Normal
vn 0 0 -1

# Mesh description
g Formigueiro_mesh_0001

# Faces
f 1/1/1 2/2/1 3/3/1 4/4/1
f 5/5/1 6/1/1 7/4/1 8/6/1
f 9/5/1 10/1/1 11/4/1 12/6/1
f 13/5/1 14/1/1 15/4/1 16/6/1
f 17/5/1 18/1/1 19/4/1 20/6/1
f 21/5/1 22/1/1 23/4/1 24/6/1
f 25/5/1 26/1/1 27/4/1 28/6/1
f 29/5/1 30/1/1 31/4/1 32/6/1
f 33/5/1 34/1/1 35/4/1 36/6/1
f 37/5/1 38/1/1 39/4/1 40/6/1

